<svg width="20" height="20" viewBox="0 0 20 20" fill="none" xmlns="http://www.w3.org/2000/svg">
<g clip-path="url(#clip0_61_958)">
<path d="M19.9883 0.591417C19.9883 0.268012 19.7261 0.00582123 19.4027 0.00582123H0.585595C0.262191 0.00582123 0 0.268012 0 0.591417V19.4086C0 19.732 0.273824 19.9941 0.597229 19.9941H19.4144C19.7378 19.9941 20 19.732 20 19.4086L19.9883 0.591417ZM1.17119 1.17701H18.8171V3.97674H1.17119V1.17701ZM18.8288 18.823H1.18286V5.14794H18.8288V18.823Z" fill="#8C8C8C"/>
<path d="M5.04363 12.1693C5.23211 12.2719 5.46155 12.2632 5.6416 12.1466L7.3054 11.0699H8.04016V14.3526L7.30454 16.1653C7.23126 16.3458 7.25257 16.5509 7.36142 16.7126C7.47026 16.8742 7.6523 16.9711 7.84715 16.9711H12.1642C12.359 16.9711 12.5411 16.8742 12.6499 16.7126C12.7587 16.5509 12.7801 16.3458 12.7068 16.1653L11.9711 14.3526V11.0699H12.706L14.3697 12.1466C14.5498 12.2631 14.7792 12.2719 14.9677 12.1693C15.1561 12.0668 15.2734 11.8695 15.2734 11.655V7.58546C15.2734 7.26205 15.0112 6.99986 14.6878 6.99986H5.32339C4.99998 6.99986 4.73779 7.26205 4.73779 7.58546V11.6549C4.73787 11.8695 4.85519 12.0668 5.04363 12.1693ZM5.90906 8.17105H14.1023V10.5785L13.1971 9.99269C13.1023 9.93135 12.9918 9.89872 12.8789 9.89872H11.3856C11.0622 9.89872 10.8 10.1609 10.8 10.4843V14.4669C10.8 14.5424 10.8146 14.6171 10.843 14.6871L11.2946 15.7999H8.7168L9.16837 14.6871C9.19675 14.6171 9.21135 14.5424 9.21135 14.4669V10.4843C9.21135 10.1609 8.94916 9.89872 8.62576 9.89872H7.13245C7.01955 9.89872 6.90906 9.93135 6.81431 9.99269L5.90906 10.5785V8.17105Z" fill="#8C8C8C"/>
<path d="M17.3816 3.17026C17.6994 3.17026 18.0039 2.89367 17.9892 2.56893C17.9744 2.24315 17.7222 1.96761 17.3816 1.96761C17.0637 1.96761 16.7593 2.2442 16.7739 2.56893C16.7887 2.89472 17.0409 3.17026 17.3816 3.17026Z" fill="#8C8C8C"/>
<path d="M15.1775 3.17026C15.4953 3.17026 15.7998 2.89367 15.7851 2.56893C15.7703 2.24315 15.5181 1.96761 15.1775 1.96761C14.8596 1.96761 14.5552 2.2442 14.5698 2.56893C14.5846 2.89472 14.8368 3.17026 15.1775 3.17026Z" fill="#8C8C8C"/>
</g>
<defs>
<clipPath id="clip0_61_958">
<rect width="20" height="20" fill="white"/>
</clipPath>
</defs>
</svg>
