<svg width="60" height="60" viewBox="0 0 60 60" fill="none" xmlns="http://www.w3.org/2000/svg">
<g clip-path="url(#clip0_694_1370)">
<path d="M58.2422 0H1.75781C0.787031 0 0 0.787031 0 1.75781V49.1404C0 50.1111 0.787031 50.8982 1.75781 50.8982H21.3996V56.4844H18.5495C17.5787 56.4844 16.7917 57.2714 16.7917 58.2422C16.7917 59.213 17.5787 60 18.5495 60H41.4505C42.4213 60 43.2083 59.213 43.2083 58.2422C43.2083 57.2714 42.4213 56.4844 41.4505 56.4844H38.6004V50.8982H58.2422C59.213 50.8982 60 50.1111 60 49.1404V1.75781C60 0.787031 59.213 0 58.2422 0ZM3.51562 3.51562H56.4844V39.3134H3.51562V3.51562ZM35.0848 56.4844H24.9152V50.8982H35.0846V56.4844H35.0848ZM56.4844 47.3825H35.0848H24.9152H3.51562V42.829H56.4844V47.3825Z" fill="#1B1F23"/>
<path d="M46.9336 10.6079H18.8047L18.5515 8.33562C18.4522 7.44559 17.6999 6.77246 16.8045 6.77246H13.0664C12.0956 6.77246 11.3086 7.55949 11.3086 8.53027C11.3086 9.50105 12.0956 10.2881 13.0664 10.2881H15.2317L15.4829 12.5422L16.8932 28.1336C16.9751 29.0394 17.7343 29.733 18.6438 29.733H19.7181C19.5853 30.1782 19.5129 30.6491 19.5129 31.1368C19.5129 33.8493 21.7198 36.0562 24.4323 36.0562C27.1448 36.0562 29.3517 33.8495 29.3517 31.1368C29.3517 30.6491 29.2793 30.1781 29.1465 29.733H32.3694C32.2366 30.1782 32.1642 30.6491 32.1642 31.1368C32.1642 33.8493 34.3711 36.0562 37.0836 36.0562C39.7962 36.0562 42.003 33.8495 42.003 31.1368C42.003 30.6491 41.9306 30.1781 41.7979 29.733H42.6979C43.4913 29.733 44.1865 29.2013 44.3944 28.4355L48.63 12.8259C48.7733 12.2976 48.6623 11.7327 48.3298 11.2978C47.9972 10.8629 47.481 10.6079 46.9336 10.6079ZM25.8362 31.1369C25.8362 31.9108 25.2064 32.5407 24.4324 32.5407C23.6584 32.5407 23.0286 31.9109 23.0286 31.1369C23.0286 30.3629 23.6584 29.7331 24.4324 29.7331C25.2064 29.7331 25.8362 30.3629 25.8362 31.1369ZM38.4875 31.1369C38.4875 31.9108 37.8578 32.5407 37.0837 32.5407C36.3097 32.5407 35.68 31.9109 35.68 31.1369C35.68 30.3629 36.3097 29.7331 37.0837 29.7331C37.8578 29.7331 38.4875 30.3629 38.4875 31.1369ZM41.3535 26.2175H20.2498L19.1559 14.1235H44.6352L41.3535 26.2175Z" fill="#1B1F23"/>
</g>
<defs>
<clipPath id="clip0_694_1370">
<rect width="60" height="60" fill="white"/>
</clipPath>
</defs>
</svg>
