<svg width="60" height="60" viewBox="0 0 60 60" fill="none" xmlns="http://www.w3.org/2000/svg">
<g clip-path="url(#clip0_636_1114)">
<path d="M58.2422 0.0239258H1.75781C0.787031 0.0239258 0 0.810957 0 1.78174V58.2182C0 59.189 0.787031 59.976 1.75781 59.976H58.2422C59.213 59.976 60 59.189 60 58.2182V1.78174C60 0.810957 59.213 0.0239258 58.2422 0.0239258ZM56.4844 3.53955V11.8957H3.51562V3.53955H56.4844ZM3.51562 56.4605V15.4593H56.4844V56.4604L3.51562 56.4605Z" fill="#1B1F23"/>
<path d="M14.2742 34.3686L20.933 27.8255C21.6254 27.1451 21.6353 26.0322 20.9549 25.3398C20.2746 24.6474 19.1616 24.6374 18.4691 25.318L10.5454 33.1039C10.2109 33.4325 10.0215 33.8811 10.0195 34.3499C10.0176 34.8188 10.2028 35.269 10.5345 35.6006L18.4582 43.5243C18.8015 43.8676 19.2513 44.0392 19.7011 44.0392C20.1509 44.0392 20.6009 43.8677 20.944 43.5243C21.6305 42.8378 21.6305 41.7249 20.944 41.0384L14.2742 34.3686Z" fill="#1B1F23"/>
<path d="M42.7137 25.3288C42.0273 24.6423 40.9142 24.6423 40.2278 25.3288C39.5413 26.0153 39.5413 27.1282 40.2278 27.8147L46.8976 34.4847L40.2388 41.0277C39.5463 41.7081 39.5365 42.8211 40.2169 43.5135C40.561 43.8638 41.0156 44.0393 41.4708 44.0393C41.9154 44.0393 42.3604 43.8716 42.7026 43.5353L50.6264 35.7494C50.9608 35.4208 51.1502 34.9722 51.1522 34.5033C51.1542 34.0345 50.9689 33.5842 50.6373 33.2527L42.7137 25.3288Z" fill="#1B1F23"/>
<path d="M33.3738 24.9152C32.4586 24.5909 31.4541 25.0694 31.1296 25.9844L25.5586 41.6942C25.2341 42.6092 25.7128 43.614 26.6278 43.9384C26.8221 44.0073 27.0204 44.04 27.2154 44.04C27.9388 44.04 28.6165 43.59 28.8722 42.8692L34.4432 27.1595C34.7676 26.2443 34.2888 25.2396 33.3738 24.9152Z" fill="#1B1F23"/>
<path d="M52.175 9.5466C53.1291 9.5466 54.043 8.71633 53.999 7.74156C53.9547 6.76363 53.1975 5.93652 52.175 5.93652C51.221 5.93652 50.3071 6.7668 50.3511 7.74156C50.3954 8.71949 51.1526 9.5466 52.175 9.5466Z" fill="#1B1F23"/>
<path d="M45.5579 9.5466C46.5119 9.5466 47.4258 8.71633 47.3818 7.74156C47.3375 6.76363 46.5803 5.93652 45.5579 5.93652C44.6038 5.93652 43.6899 6.7668 43.734 7.74156C43.7783 8.71949 44.5354 9.5466 45.5579 9.5466Z" fill="#1B1F23"/>
</g>
<defs>
<clipPath id="clip0_636_1114">
<rect width="60" height="60" fill="white"/>
</clipPath>
</defs>
</svg>
