<svg width="50" height="50" viewBox="0 0 50 50" fill="none" xmlns="http://www.w3.org/2000/svg">
<g clip-path="url(#clip0_636_1098)">
<path d="M48.5352 0H1.46484C0.655859 0 0 0.655859 0 1.46484V40.9503C0 41.7593 0.655859 42.4151 1.46484 42.4151H17.833V47.0703H15.4579C14.6489 47.0703 13.9931 47.7262 13.9931 48.5352C13.9931 49.3441 14.6489 50 15.4579 50H34.5421C35.3511 50 36.0069 49.3441 36.0069 48.5352C36.0069 47.7262 35.3511 47.0703 34.5421 47.0703H32.167V42.4151H48.5352C49.3441 42.4151 50 41.7593 50 40.9503V1.46484C50 0.655859 49.3441 0 48.5352 0ZM47.0703 32.7611H26.7322V12.2533H47.0703V32.7611ZM2.92969 2.92969H47.0703V9.32363H25.2674C24.4584 9.32363 23.8025 9.97949 23.8025 10.7885V32.7611H2.92969V2.92969ZM29.2373 47.0703H20.7627V42.4151H29.2372V47.0703H29.2373ZM47.0703 39.4854H2.92969V35.6908H47.0703V39.4854Z" fill="#1B1F23"/>
<path d="M32.2305 23.9722H41.5718C42.3808 23.9722 43.0366 23.3163 43.0366 22.5073C43.0366 21.6983 42.3808 21.0425 41.5718 21.0425H32.2305C31.4215 21.0425 30.7656 21.6983 30.7656 22.5073C30.7656 23.3163 31.4215 23.9722 32.2305 23.9722Z" fill="#1B1F23"/>
<path d="M32.2305 29.8315H41.5718C42.3808 29.8315 43.0366 29.1757 43.0366 28.3667C43.0366 27.5577 42.3808 26.9019 41.5718 26.9019H32.2305C31.4215 26.9019 30.7656 27.5577 30.7656 28.3667C30.7656 29.1757 31.4215 29.8315 32.2305 29.8315Z" fill="#1B1F23"/>
<path d="M32.2305 18.1128H41.5718C42.3808 18.1128 43.0366 17.4569 43.0366 16.6479C43.0366 15.839 42.3808 15.1831 41.5718 15.1831H32.2305C31.4215 15.1831 30.7656 15.839 30.7656 16.6479C30.7656 17.4569 31.4215 18.1128 32.2305 18.1128Z" fill="#1B1F23"/>
</g>
<defs>
<clipPath id="clip0_636_1098">
<rect width="50" height="50" fill="white"/>
</clipPath>
</defs>
</svg>
