<svg width="20" height="20" viewBox="0 0 20 20" fill="none" xmlns="http://www.w3.org/2000/svg">
<g clip-path="url(#clip0_61_920)">
<path d="M19.4141 0.00597656H0.585938C0.262344 0.00597656 0 0.26832 0 0.591914V19.4081C0 19.7316 0.262344 19.994 0.585938 19.994H19.4141C19.7377 19.994 20 19.7316 20 19.4081V0.591914C20 0.26832 19.7377 0.00597656 19.4141 0.00597656ZM18.8281 1.17785V3.96723H1.17188V1.17785H18.8281ZM1.17188 18.8222V5.15109H18.8281V18.8222H1.17188Z" fill="#8C8C8C"/>
<path d="M15.9419 13.4691C15.1689 13.4691 14.5101 13.9661 14.2674 14.6573L12.9758 14.6562C13.8196 13.8675 14.3483 12.7458 14.3483 11.5024V10.4425H14.9137C15.2373 10.4425 15.4996 10.1801 15.4996 9.85652V7.55391C15.4996 7.23031 15.2373 6.96797 14.9137 6.96797H12.6111C12.2875 6.96797 12.0251 7.23031 12.0251 7.55391V9.85652C12.0251 10.1801 12.2875 10.4425 12.6111 10.4425H13.1765V11.5024C13.1765 12.5888 12.6227 13.5477 11.783 14.1134V14.1047C11.783 13.7811 11.5207 13.5188 11.1971 13.5188H8.89443C8.57084 13.5188 8.3085 13.7811 8.3085 14.1047V14.1343C7.45033 13.572 6.88189 12.6029 6.88189 11.5024V10.5622H7.44732C7.77092 10.5622 8.03326 10.2998 8.03326 9.97625V7.67363C8.03326 7.35004 7.77092 7.0877 7.44732 7.0877H5.14463C4.82104 7.0877 4.55869 7.35004 4.55869 7.67363V9.97625C4.55869 10.2998 4.82104 10.5622 5.14463 10.5622H5.71002V11.5024C5.71002 12.743 6.23588 13.8629 7.07635 14.6512L5.73307 14.6501C5.49057 13.9585 4.83158 13.4611 4.05826 13.4611C3.07975 13.4611 2.28369 14.2571 2.28369 15.2356C2.28369 16.2141 3.07975 17.0102 4.05826 17.0102C4.83127 17.0102 5.49006 16.5131 5.73279 15.822L8.3085 15.8241V16.4073C8.3085 16.7309 8.57084 16.9933 8.89443 16.9933H11.1971C11.5207 16.9933 11.783 16.7309 11.783 16.4073V15.8271L14.2672 15.8291C14.5097 16.5207 15.1686 17.0182 15.942 17.0182C16.9205 17.0182 17.7165 16.2221 17.7165 15.2436C17.7165 14.2652 16.9204 13.4691 15.9419 13.4691ZM13.197 8.13988H14.3278V9.27063H13.197V8.13988ZM5.73057 8.25957H6.86135V9.39031H5.73057V8.25957ZM4.05826 15.8383C3.72592 15.8383 3.45557 15.568 3.45557 15.2356C3.45557 14.9033 3.72592 14.633 4.05826 14.633C4.39057 14.633 4.66092 14.9033 4.66092 15.2356C4.66088 15.568 4.39057 15.8383 4.05826 15.8383ZM10.6112 15.8214H9.48037V14.6907H10.6112V15.8214ZM15.9419 15.8463C15.6096 15.8463 15.3393 15.5759 15.3393 15.2436C15.3393 14.9113 15.6096 14.6409 15.9419 14.6409C16.2743 14.6409 16.5446 14.9113 16.5446 15.2436C16.5446 15.5759 16.2743 15.8463 15.9419 15.8463Z" fill="#8C8C8C"/>
<path d="M17.3921 3.15652C17.6986 3.15652 17.9922 2.88703 17.978 2.57059C17.9638 2.25312 17.7206 1.98465 17.3921 1.98465C17.0856 1.98465 16.792 2.25414 16.8062 2.57059C16.8204 2.88805 17.0636 3.15652 17.3921 3.15652Z" fill="#8C8C8C"/>
<path d="M15.186 3.15652C15.4925 3.15652 15.7862 2.88703 15.772 2.57059C15.7578 2.25312 15.5145 1.98465 15.186 1.98465C14.8796 1.98465 14.5859 2.25414 14.6001 2.57059C14.6143 2.88805 14.8576 3.15652 15.186 3.15652Z" fill="#8C8C8C"/>
</g>
<defs>
<clipPath id="clip0_61_920">
<rect width="20" height="20" fill="white"/>
</clipPath>
</defs>
</svg>
