<svg width="17" height="16" viewBox="0 0 17 16" fill="none" xmlns="http://www.w3.org/2000/svg">
<g clip-path="url(#clip0_72_1239)">
<path d="M15.7607 0H1.51074C1.26074 0 1.05241 0.083333 0.885742 0.25C0.719076 0.416667 0.635742 0.625 0.635742 0.875V15.125C0.635742 15.375 0.719076 15.5833 0.885742 15.75C1.05241 15.9167 1.26074 16 1.51074 16H9.19824V9.8125H7.07324V7.375H9.19824V5.625C9.19824 4.58333 9.47949 3.79167 10.042 3.25C10.6045 2.70833 11.3441 2.4375 12.2607 2.4375C13.0524 2.4375 13.6774 2.45833 14.1357 2.5V4.6875H12.8857C12.4274 4.6875 12.1149 4.78125 11.9482 4.96875C11.7816 5.15625 11.6982 5.45833 11.6982 5.875V7.375H14.0732L13.7607 9.8125H11.6982V16H15.7607C16.0107 16 16.2191 15.9167 16.3857 15.75C16.5524 15.5833 16.6357 15.375 16.6357 15.125V0.875C16.6357 0.625 16.5524 0.416667 16.3857 0.25C16.2191 0.083333 16.0107 0 15.7607 0Z" fill="#8C8C8C"/>
</g>
<defs>
<clipPath id="clip0_72_1239">
<rect width="16" height="16" fill="white" transform="matrix(1 0 0 -1 0.635742 16)"/>
</clipPath>
</defs>
</svg>
