<svg width="16" height="16" viewBox="0 0 16 16" fill="none" xmlns="http://www.w3.org/2000/svg">
<g clip-path="url(#clip0_72_1233)">
<path d="M14.5973 4.27431C13.9051 3.05279 12.9584 2.09592 11.7572 1.40372C10.556 0.711525 9.24289 0.365425 7.81778 0.365425C6.39266 0.365425 5.07952 0.711525 3.87835 1.40372C2.67718 2.09592 1.7305 3.04261 1.0383 4.24378C0.3461 5.44494 0 6.75809 0 8.1832C0 9.89334 0.49879 11.4304 1.49637 12.7945C2.49395 14.1585 3.76638 15.1052 5.31365 15.6345C5.51723 15.6345 5.65975 15.5938 5.74118 15.5124C5.82262 15.4309 5.86333 15.3291 5.86333 15.207V13.8022H5.61903C5.49687 13.8429 5.32383 13.8633 5.09988 13.8633C4.87593 13.8633 4.63163 13.8429 4.36696 13.8022C4.1023 13.7615 3.86817 13.6597 3.66458 13.4968C3.461 13.334 3.31848 13.11 3.23705 12.825L3.1149 12.6418C3.07418 12.4789 2.97238 12.2957 2.80951 12.0921C2.64664 11.8885 2.50413 11.7664 2.38198 11.7256L2.13767 11.5424L2.0766 11.4203C2.03588 11.3388 2.04606 11.2879 2.10714 11.2676C2.16821 11.2472 2.28019 11.237 2.44306 11.237H2.62628C2.74844 11.2777 2.91131 11.3694 3.1149 11.5119C3.31848 11.6544 3.49153 11.8478 3.63405 12.0921C3.77656 12.3364 3.95979 12.5298 4.18373 12.6723C4.40768 12.8148 4.63163 12.8861 4.85557 12.8861C5.07952 12.8861 5.27293 12.8657 5.4358 12.825C5.59867 12.7843 5.74118 12.7436 5.86333 12.7029C5.94477 12.255 6.128 11.9089 6.41302 11.6646C6.00584 11.6238 5.64957 11.5628 5.34418 11.4813C5.0388 11.3999 4.72324 11.2676 4.3975 11.0843C4.07176 10.9011 3.79692 10.667 3.57297 10.382C3.34902 10.0969 3.16579 9.74065 3.02328 9.31312C2.88077 8.88558 2.80951 8.36643 2.80951 7.75567C2.80951 6.94132 3.07418 6.24912 3.60351 5.67907C3.3592 5.06831 3.39992 4.37611 3.72566 3.60247C3.88853 3.56176 4.16337 3.61265 4.55019 3.75516C4.93701 3.89768 5.23221 4.03001 5.4358 4.15216L5.86333 4.39647C6.51481 4.2336 7.1663 4.15216 7.81778 4.15216C8.46926 4.15216 9.12074 4.2336 9.77222 4.39647L10.1387 4.15216C10.4237 3.98929 10.7393 3.84678 11.0854 3.72463C11.4315 3.60247 11.7063 3.56176 11.9099 3.60247C12.2356 4.37611 12.256 5.06831 11.971 5.67907C12.541 6.24912 12.826 6.94132 12.826 7.75567C12.826 8.36643 12.7548 8.88558 12.6123 9.31312C12.4698 9.74065 12.2865 10.0969 12.0626 10.382C11.8386 10.667 11.5638 10.9011 11.2381 11.0843C10.9123 11.2676 10.5968 11.3999 10.2914 11.4813C9.98599 11.5628 9.62971 11.6238 9.22253 11.6646C9.58899 11.9496 9.77222 12.4178 9.77222 13.0693V15.207C9.77222 15.3291 9.81294 15.4309 9.89437 15.5124C9.97581 15.5938 10.098 15.6345 10.2608 15.6345C11.8488 15.1052 13.1416 14.1585 14.1392 12.7945C15.1368 11.4304 15.6356 9.89334 15.6356 8.1832C15.6356 6.75809 15.2895 5.45512 14.5973 4.27431Z" fill="#8C8C8C"/>
</g>
<defs>
<clipPath id="clip0_72_1233">
<rect width="15.6356" height="16" fill="white" transform="matrix(1 0 0 -1 0 16)"/>
</clipPath>
</defs>
</svg>
