<svg width="17" height="16" viewBox="0 0 17 16" fill="none" xmlns="http://www.w3.org/2000/svg">
<g clip-path="url(#clip0_72_1235)">
<path d="M12.1982 0H5.07324C4.23991 0 3.48991 0.197917 2.82324 0.59375C2.15658 0.989583 1.62533 1.52083 1.22949 2.1875C0.833659 2.85417 0.635742 3.60417 0.635742 4.4375V11.5625C0.635742 12.3958 0.833659 13.1458 1.22949 13.8125C1.62533 14.4792 2.15658 15.0104 2.82324 15.4062C3.48991 15.8021 4.23991 16 5.07324 16H12.1982C13.0316 16 13.7816 15.8021 14.4482 15.4062C15.1149 15.0104 15.6462 14.4792 16.042 13.8125C16.4378 13.1458 16.6357 12.3958 16.6357 11.5625V4.4375C16.6357 3.60417 16.4378 2.85417 16.042 2.1875C15.6462 1.52083 15.1149 0.989583 14.4482 0.59375C13.7816 0.197917 13.0316 0 12.1982 0ZM15.1982 11.5625C15.1982 12.3958 14.9066 13.1042 14.3232 13.6875C13.7399 14.2708 13.0316 14.5625 12.1982 14.5625H5.07324C4.23991 14.5625 3.53158 14.2708 2.94824 13.6875C2.36491 13.1042 2.07324 12.3958 2.07324 11.5625V4.4375C2.07324 3.60417 2.36491 2.89583 2.94824 2.3125C3.53158 1.72917 4.23991 1.4375 5.07324 1.4375H12.1982C13.0316 1.4375 13.7399 1.72917 14.3232 2.3125C14.9066 2.89583 15.1982 3.60417 15.1982 4.4375V11.5625ZM8.63574 3.875C7.88574 3.875 7.19824 4.0625 6.57324 4.4375C5.94824 4.8125 5.44824 5.3125 5.07324 5.9375C4.69824 6.5625 4.51074 7.25 4.51074 8C4.51074 8.75 4.69824 9.4375 5.07324 10.0625C5.44824 10.6875 5.94824 11.1875 6.57324 11.5625C7.19824 11.9375 7.88574 12.125 8.63574 12.125C9.38574 12.125 10.0732 11.9375 10.6982 11.5625C11.3232 11.1875 11.8232 10.6875 12.1982 10.0625C12.5732 9.4375 12.7607 8.75 12.7607 8C12.7607 7.25 12.5732 6.5625 12.1982 5.9375C11.8232 5.3125 11.3232 4.8125 10.6982 4.4375C10.0732 4.0625 9.38574 3.875 8.63574 3.875ZM8.63574 10.6875C7.88574 10.6875 7.25033 10.4271 6.72949 9.90625C6.20866 9.38542 5.94824 8.75 5.94824 8C5.94824 7.25 6.20866 6.61458 6.72949 6.09375C7.25033 5.57292 7.88574 5.3125 8.63574 5.3125C9.38574 5.3125 10.0212 5.57292 10.542 6.09375C11.0628 6.61458 11.3232 7.25 11.3232 8C11.3232 8.75 11.0628 9.38542 10.542 9.90625C10.0212 10.4271 9.38574 10.6875 8.63574 10.6875ZM12.9482 2.6875C12.6566 2.6875 12.4066 2.79167 12.1982 3C11.9899 3.20833 11.8857 3.44792 11.8857 3.71875C11.8857 3.98958 11.9899 4.22917 12.1982 4.4375C12.4066 4.64583 12.6566 4.75 12.9482 4.75C13.2399 4.75 13.4795 4.64583 13.667 4.4375C13.8545 4.22917 13.9482 3.98958 13.9482 3.71875C13.9482 3.44792 13.8545 3.20833 13.667 3C13.4795 2.79167 13.2399 2.6875 12.9482 2.6875Z" fill="#8C8C8C"/>
</g>
<defs>
<clipPath id="clip0_72_1235">
<rect width="16" height="16" fill="white" transform="matrix(1 0 0 -1 0.635742 16)"/>
</clipPath>
</defs>
</svg>
