<svg width="22" height="22" viewBox="0 0 22 22" fill="none" xmlns="http://www.w3.org/2000/svg">
<g clip-path="url(#clip0_69_1028)">
<path d="M21.7739 8.77134C21.7123 8.47172 21.4485 8.2567 21.1426 8.2567H20.014C19.8361 7.67095 19.6016 7.10492 19.3132 6.56506L20.1102 5.76799C20.3265 5.55173 20.361 5.21322 20.1928 4.95782C19.3626 3.69703 18.3024 2.63682 17.0416 1.80666C16.7862 1.63844 16.4477 1.67294 16.2314 1.8892L15.4344 2.68627C14.8946 2.39783 14.3285 2.16334 13.7428 1.98545V0.856837C13.7428 0.550942 13.5278 0.2872 13.2281 0.22554C11.7703 -0.0744679 10.2297 -0.0744679 8.7719 0.22554C8.47228 0.2872 8.25726 0.550942 8.25726 0.856837V1.9855C7.67151 2.16334 7.10548 2.39787 6.56567 2.68632L5.7686 1.88925C5.55234 1.67299 5.21379 1.63852 4.95842 1.8067C3.69763 2.63686 2.63742 3.69707 1.80727 4.95786C1.63904 5.21331 1.67355 5.55177 1.88981 5.76804L2.68688 6.56511C2.39843 7.10492 2.16395 7.67099 1.98606 8.25674H0.857355C0.551461 8.25674 0.287719 8.47176 0.226059 8.77138C0.0760547 9.50026 0 10.2499 0 10.9995C0 11.749 0.0760547 12.4987 0.226059 13.2276C0.287719 13.5272 0.551461 13.7422 0.857355 13.7422H1.98602C2.16386 14.328 2.39839 14.894 2.68684 15.4338L1.88977 16.2309C1.6735 16.4471 1.63904 16.7857 1.80722 17.0411C2.63738 18.3018 3.69759 19.3621 4.95838 20.1922C5.21379 20.3604 5.55229 20.3259 5.76855 20.1097L6.56563 19.3126C7.10544 19.6011 7.67147 19.8355 8.25722 20.0134V21.1421C8.25722 21.448 8.47223 21.7117 8.77186 21.7734C9.50078 21.9234 10.2505 21.9994 11 21.9994C11.7495 21.9994 12.4992 21.9234 13.2281 21.7734C13.5277 21.7117 13.7427 21.448 13.7427 21.1421V20.0134C14.3284 19.8356 14.8945 19.6011 15.4343 19.3126L16.2314 20.1097C16.4477 20.326 16.7862 20.3604 17.0416 20.1922C18.3024 19.3621 19.3626 18.3018 20.1927 17.0411C20.361 16.7856 20.3265 16.4471 20.1102 16.2309L19.3131 15.4338C19.6016 14.894 19.8361 14.328 20.0139 13.7422H21.1426C21.4485 13.7422 21.7122 13.5272 21.7739 13.2276C21.9239 12.4987 22 11.749 22 10.9995C22 10.25 21.9239 9.50026 21.7739 8.77134ZM12.4537 20.6022C11.4945 20.746 10.5055 20.746 9.54632 20.6022L9.54602 12.8325C9.54602 12.6217 9.4429 12.4242 9.26991 12.3037C8.45518 11.7361 7.96877 10.8056 7.96877 9.81458C7.96877 8.90033 8.38707 8.04766 9.06804 7.4809V7.99455C9.06804 8.16707 9.13718 8.33237 9.26002 8.4535L10.5474 9.72292C10.7983 9.97038 11.2016 9.97038 11.4525 9.72292L12.7398 8.4535C12.8627 8.33237 12.9318 8.16707 12.9318 7.99455V7.48081C13.6128 8.04757 14.0311 8.90029 14.0311 9.81458C14.0311 10.8056 13.5447 11.7361 12.73 12.3037C12.557 12.4242 12.4539 12.6217 12.4539 12.8325L12.4537 20.6022ZM20.6027 12.4532H19.5227C19.2259 12.4532 18.9674 12.6558 18.8967 12.9441C18.7007 13.743 18.3851 14.5047 17.9588 15.208C17.8049 15.4618 17.8443 15.788 18.0542 15.9978L18.8173 16.761C18.2373 17.548 17.5486 18.2368 16.7615 18.8168L15.9984 18.0537C15.7885 17.8438 15.4623 17.8044 15.2085 17.9583C14.7436 18.2401 14.2529 18.4732 13.743 18.6557V13.1521C14.7365 12.3347 15.3203 11.1111 15.3203 9.81458C15.3203 8.02205 14.1922 6.39572 12.5132 5.76769C12.3154 5.69366 12.0937 5.72133 11.92 5.84177C11.7464 5.96221 11.6429 6.16008 11.6429 6.37136V7.72488L11 8.35879L10.3571 7.72492V6.37145C10.3571 6.16017 10.2536 5.96225 10.08 5.84186C9.90632 5.72141 9.68477 5.69379 9.48681 5.76778C7.80781 6.39581 6.67975 8.02209 6.67975 9.81458C6.67975 11.1111 7.26348 12.3347 8.257 13.1521V18.6557C7.74709 18.4732 7.25648 18.2401 6.79155 17.9583C6.5377 17.8044 6.21161 17.8438 6.0017 18.0537L5.23854 18.8168C4.45148 18.2368 3.76273 17.548 3.1827 16.761L3.94586 15.9978C4.15577 15.7879 4.19513 15.4618 4.04125 15.208C3.61496 14.5047 3.2994 13.743 3.10333 12.9441C3.03261 12.6558 2.77415 12.4532 2.47736 12.4532H1.39726C1.32537 11.9736 1.28906 11.4866 1.28906 10.9995C1.28906 10.5123 1.32537 10.0254 1.39726 9.54581H2.47732C2.77411 9.54581 3.03256 9.34312 3.10329 9.05489C3.29931 8.25593 3.61488 7.49426 4.04121 6.79095C4.19508 6.53709 4.15572 6.211 3.94578 6.0011L3.18265 5.23797C3.76269 4.45091 4.45143 3.76217 5.23849 3.18213L6.00166 3.9453C6.21156 4.1552 6.5377 4.19456 6.79151 4.04069C7.49478 3.6144 8.25645 3.29884 9.05541 3.10277C9.34364 3.03204 9.54632 2.77359 9.54632 2.4768V1.39674C10.5055 1.25292 11.4945 1.25292 12.4537 1.39674V2.4768C12.4537 2.77359 12.6564 3.03204 12.9446 3.10277C13.7436 3.29879 14.5052 3.61436 15.2085 4.04069C15.4623 4.19456 15.7884 4.1552 15.9983 3.9453L16.7615 3.18213C17.5486 3.76217 18.2373 4.45091 18.8173 5.23797L18.0542 6.0011C17.8443 6.211 17.8049 6.53709 17.9588 6.79095C18.3851 7.49426 18.7006 8.25593 18.8967 9.05489C18.9674 9.34312 19.2259 9.54581 19.5227 9.54581H20.6027C20.6746 10.0254 20.7109 10.5123 20.7109 10.9995C20.7109 11.4866 20.6746 11.9736 20.6027 12.4532Z" fill="#8C8C8C"/>
</g>
<defs>
<clipPath id="clip0_69_1028">
<rect width="22" height="22" fill="white"/>
</clipPath>
</defs>
</svg>
