<svg width="60" height="60" viewBox="0 0 60 60" fill="none" xmlns="http://www.w3.org/2000/svg">
<g clip-path="url(#clip0_636_1082)">
<path d="M58.2401 45.416H56.5153V12.3575C56.5153 11.3855 55.7274 10.5976 54.7555 10.5976H39.5177C37.9925 8.36595 35.9315 6.48911 33.4509 5.16757L30.8099 3.7605C30.2927 3.48478 29.6721 3.48478 29.1549 3.7605L26.5139 5.16757C24.033 6.48935 21.9717 8.36654 20.4464 10.5988C20.4389 10.5986 20.4315 10.5976 20.424 10.5976H5.2796C4.30769 10.5976 3.51974 11.3855 3.51974 12.3575V45.416H1.75987C0.787952 45.416 0 46.2039 0 47.1758V51.1665C0 54.0777 2.36843 56.4461 5.2796 56.4461H54.7204C57.6316 56.4461 60 54.0777 60 51.1665V47.1758C60 46.2039 59.2122 45.416 58.2401 45.416ZM52.9956 14.1173V45.416H49.3062V39.0448C49.3062 34.9618 46.3635 31.5554 42.4879 30.8293V20.2217C42.4879 18.096 42.0942 16.0331 41.3612 14.1173H52.9956ZM38.9682 37.6993H20.9967V21.9817H38.9682V37.6993ZM17.6651 40.2508L20.2664 45.4159H14.1784V39.0447C14.1784 36.9146 15.5619 35.1029 17.4769 34.4573V39.4591C17.477 39.7342 17.5414 40.0053 17.6651 40.2508ZM22.0937 41.2191H37.8713L35.7576 45.4159H24.2075L22.0937 41.2191ZM42.2998 40.2508C42.4235 40.0052 42.4879 39.7342 42.4879 39.4592V34.4574C44.403 35.103 45.7865 36.9148 45.7865 39.0448V45.416H39.6985L42.2998 40.2508ZM28.169 8.27397L29.9825 7.3078L31.796 8.27397C35.6959 10.3518 38.2937 14.156 38.8544 18.462H21.1107C21.6714 14.1559 24.2692 10.3518 28.169 8.27397ZM7.03947 14.1173H18.6038C17.8709 16.0331 17.4771 18.096 17.4771 20.2217V30.8293C13.6017 31.5553 10.6589 34.9618 10.6589 39.0448V45.416H7.03947V14.1173ZM56.4803 51.1665C56.4803 52.1369 55.6908 52.9264 54.7204 52.9264H5.2796C4.30921 52.9264 3.51974 52.1369 3.51974 51.1665V48.9357H56.4803V51.1665Z" fill="#1B1F23"/>
<path d="M29.9822 35.1705C27.0433 35.1705 24.6523 32.7795 24.6523 29.8407C24.6523 26.9017 27.0433 24.5107 29.9822 24.5107C32.921 24.5107 35.3121 26.9017 35.3121 29.8407C35.312 32.7795 32.921 35.1705 29.9822 35.1705ZM29.9822 28.0305C28.9841 28.0305 28.1721 28.8425 28.1721 29.8407C28.1721 30.8388 28.9841 31.6508 29.9822 31.6508C30.9802 31.6508 31.7924 30.8388 31.7924 29.8407C31.7922 28.8425 30.9802 28.0305 29.9822 28.0305Z" fill="#1B1F23"/>
</g>
<defs>
<clipPath id="clip0_636_1082">
<rect width="60" height="60" fill="white"/>
</clipPath>
</defs>
</svg>
