<svg width="22" height="22" viewBox="0 0 22 22" fill="none" xmlns="http://www.w3.org/2000/svg">
<path d="M21.3553 7.0877H19.9413C18.385 3.53108 14.8892 1.23979 11 1.23979C9.02565 1.23979 7.12373 1.82674 5.49976 2.93721C3.97887 3.97719 2.79314 5.40885 2.05863 7.0877H0.64472C0.288663 7.0877 0 7.37637 0 7.73242V14.2676C0 14.6236 0.288663 14.9123 0.64472 14.9123H2.05868C2.79069 16.5856 3.97092 18.0134 5.48558 19.0531C7.11268 20.1698 9.01955 20.7602 11 20.7602C12.984 20.7602 14.8936 20.168 16.5225 19.0475C18.0337 18.008 19.2108 16.5825 19.9413 14.9123H21.3552C21.7113 14.9123 22 14.6236 22 14.2676V7.73242C22 7.37637 21.7113 7.0877 21.3553 7.0877ZM18.513 7.0877H14.7323C14.4592 5.49761 14.0244 4.13299 13.469 3.12917C13.4142 3.03009 13.359 2.93605 13.3035 2.84669C15.5282 3.47323 17.4235 4.99232 18.513 7.0877ZM11 2.52923C11.4217 2.52923 11.9104 2.97542 12.3408 3.75338C12.8027 4.58821 13.1735 5.73448 13.4226 7.0877H8.57705C8.8236 5.74759 9.18993 4.61052 9.6466 3.77621C10.0805 2.98372 10.5737 2.52923 11 2.52923ZM6.22761 4.0016C6.98945 3.48067 7.82205 3.09285 8.69702 2.84626C8.6362 2.94426 8.57564 3.04737 8.51559 3.15706C7.96706 4.15917 7.53798 5.5127 7.2675 7.0877H3.48678C4.12935 5.85302 5.06591 4.79594 6.22761 4.0016ZM3.48695 14.9123H7.26776C7.53643 16.4771 7.96139 17.8234 8.50532 18.8242C8.56876 18.9409 8.6328 19.0502 8.6971 19.1538C7.81736 18.9059 6.98051 18.5152 6.21523 17.99C5.0589 17.1962 4.12703 16.1423 3.48695 14.9123ZM11 19.4708C10.5707 19.4708 10.0743 19.0106 9.63826 18.2084C9.1922 17.3878 8.82188 16.233 8.57731 14.9123H13.4228C13.1777 16.2355 12.8063 17.3923 12.3592 18.2131C11.9238 19.0124 11.4284 19.4708 11 19.4708ZM15.7918 17.9851C15.0246 18.5129 14.1853 18.9052 13.3029 19.1539C13.3661 19.0519 13.4291 18.9445 13.4915 18.8299C14.0369 17.8287 14.4631 16.4802 14.7323 14.9123H18.513C17.8743 16.1397 16.9451 17.1918 15.7918 17.9851ZM20.7106 13.6228H1.28944V8.37714H20.7106V13.6228Z" fill="#8C8C8C"/>
<path d="M3.08504 12.3349C3.18329 12.5671 3.40791 12.7208 3.66 12.7281C3.66632 12.7283 3.67259 12.7284 3.67891 12.7284C3.92369 12.7284 4.1481 12.5896 4.25692 12.3691L4.73256 11.4059L5.18313 12.3592C5.29136 12.5882 5.52212 12.7318 5.77679 12.7283C6.02999 12.7241 6.25728 12.572 6.35781 12.3395L7.28105 10.2044C7.42237 9.87758 7.27198 9.49809 6.94515 9.35677C6.61836 9.21545 6.23884 9.36584 6.09751 9.69267L5.73995 10.5196L5.32815 9.6484C5.22246 9.42477 4.99814 9.2813 4.75078 9.27919C4.74893 9.27919 4.74708 9.27919 4.74523 9.27919C4.50003 9.27919 4.27588 9.41836 4.16718 9.63847L3.72408 10.5358L3.37099 9.70118C3.23229 9.37328 2.85406 9.21988 2.52602 9.35858C2.19812 9.49732 2.04472 9.8756 2.18342 10.2035L3.08504 12.3349Z" fill="#8C8C8C"/>
<path d="M9.35173 12.3311C9.44998 12.5633 9.6746 12.717 9.92669 12.7243C9.93301 12.7245 9.93932 12.7246 9.9456 12.7246C10.1903 12.7246 10.4147 12.5858 10.5236 12.3653L10.9992 11.402L11.4498 12.3553C11.558 12.5843 11.7894 12.7287 12.0434 12.7245C12.2966 12.7202 12.5239 12.5681 12.6245 12.3357L13.5477 10.2005C13.689 9.87372 13.5386 9.49423 13.2118 9.35291C12.885 9.21163 12.5055 9.36198 12.3642 9.68881L12.0066 10.5158L11.5948 9.64454C11.4891 9.42091 11.2647 9.27744 11.0174 9.27533C11.0155 9.27533 11.0137 9.27533 11.0118 9.27533C10.7666 9.27533 10.5425 9.4145 10.4338 9.63461L9.99069 10.532L9.63759 9.69732C9.49889 9.36942 9.12066 9.21597 8.79262 9.35472C8.46472 9.49346 8.31132 9.87174 8.45002 10.1997L9.35173 12.3311Z" fill="#8C8C8C"/>
<path d="M15.6182 12.3273C15.7165 12.5595 15.9411 12.7131 16.1932 12.7205C16.1995 12.7207 16.2058 12.7208 16.2121 12.7208C16.4569 12.7208 16.6813 12.5819 16.7901 12.3615L17.2657 11.3982L17.7163 12.3515C17.8245 12.5805 18.0559 12.7244 18.3099 12.7207C18.5632 12.7164 18.7904 12.5643 18.891 12.3319L19.8142 10.1968C19.9555 9.86993 19.8051 9.49045 19.4783 9.34912C19.1515 9.2078 18.772 9.35815 18.6307 9.68502L18.2731 10.512L17.8613 9.64071C17.7556 9.41708 17.5313 9.27361 17.2839 9.2715C17.2821 9.2715 17.2802 9.2715 17.2784 9.2715C17.0332 9.2715 16.809 9.41067 16.7003 9.63078L16.2572 10.5281L15.9042 9.69349C15.7655 9.36559 15.3872 9.21219 15.0592 9.35089C14.7313 9.48963 14.5779 9.86791 14.7166 10.1959L15.6182 12.3273Z" fill="#8C8C8C"/>
</svg>
