<svg width="60" height="60" viewBox="0 0 60 60" fill="none" xmlns="http://www.w3.org/2000/svg">
<g clip-path="url(#clip0_636_1075)">
<path d="M14.8913 32.9184H34.5382C35.5093 32.9184 36.2967 32.1311 36.2967 31.1599C36.2967 30.1887 35.5093 29.4014 34.5382 29.4014H14.8913C13.9202 29.4014 13.1328 30.1887 13.1328 31.1599C13.1328 32.1311 13.9202 32.9184 14.8913 32.9184Z" fill="#1B1F23"/>
<path d="M14.8913 39.9523H34.5382C35.5093 39.9523 36.2967 39.165 36.2967 38.1938C36.2967 37.2226 35.5093 36.4353 34.5382 36.4353H14.8913C13.9202 36.4353 13.1328 37.2226 13.1328 38.1938C13.1328 39.165 13.9202 39.9523 14.8913 39.9523Z" fill="#1B1F23"/>
<path d="M56.2448 18.3021C56.2448 12.1014 51.643 6.95622 45.6754 6.10006V1.75852C45.6754 0.787346 44.8881 0 43.9169 0H5.51242C4.54125 0 3.75391 0.787346 3.75391 1.75852V58.2415C3.75391 59.2127 4.54125 60 5.51242 60H43.9168C44.888 60 45.6753 59.2127 45.6753 58.2415V30.504C51.6429 29.648 56.2448 24.5027 56.2448 18.3021ZM42.1583 3.51703V6.10006C39.9003 6.42398 37.8382 7.36174 36.1467 8.73866C36.0883 8.73279 36.0291 8.72974 35.9692 8.72974H14.8912C13.92 8.72974 13.1327 9.51709 13.1327 10.4883V17.0678C13.1327 18.039 13.92 18.8263 14.8912 18.8263H31.6007C31.6523 20.0531 31.8838 21.234 32.2699 22.3434H14.8911C13.9199 22.3434 13.1325 23.1307 13.1325 24.1019C13.1325 25.073 13.9199 25.8604 14.8911 25.8604H34.1844C36.101 28.3226 38.9295 30.0409 42.1581 30.504V44.902H7.27094V3.51703H42.1583ZM31.957 15.3093H16.6497V12.2468H33.1819C32.644 13.1967 32.2285 14.2248 31.957 15.3093ZM7.27094 56.483V48.4429H42.1583V56.483H7.27094ZM43.9168 27.1129C39.0585 27.1129 35.1059 23.1604 35.1059 18.3021C35.1059 13.4437 39.0585 9.49118 43.9168 9.49118C48.7751 9.49118 52.7277 13.4437 52.7277 18.3021C52.7277 23.1604 48.7752 27.1129 43.9168 27.1129Z" fill="#1B1F23"/>
<path d="M45.6846 15.2851L43.1726 17.6284L42.1495 16.6739C41.4392 16.0117 40.3265 16.0501 39.664 16.7602C39.0016 17.4704 39.0402 18.5832 39.7503 19.2457L41.9729 21.3192C42.3108 21.6343 42.7416 21.7918 43.1725 21.7918C43.6033 21.7918 44.0343 21.6342 44.372 21.3192L48.0835 17.8568C48.7938 17.1943 48.8323 16.0814 48.1698 15.3713C47.5072 14.6612 46.3948 14.6228 45.6846 15.2851Z" fill="#1B1F23"/>
<path d="M24.532 50.7512C23.5792 50.7939 22.7734 51.5239 22.7734 52.5098C22.7734 53.4296 23.5822 54.3108 24.532 54.2683C25.4847 54.2256 26.2905 53.4956 26.2905 52.5098C26.2905 51.5898 25.4816 50.7087 24.532 50.7512Z" fill="#1B1F23"/>
</g>
<defs>
<clipPath id="clip0_636_1075">
<rect width="60" height="60" fill="white"/>
</clipPath>
</defs>
</svg>
