<svg width="20" height="20" viewBox="0 0 20 20" fill="none" xmlns="http://www.w3.org/2000/svg">
<g clip-path="url(#clip0_61_932)">
<path d="M19.4141 0H0.585938C0.262344 0 0 0.262344 0 0.585938V16.3801C0 16.7037 0.262344 16.9661 0.585938 16.9661H7.1332V18.8281H6.18316C5.85957 18.8281 5.59723 19.0905 5.59723 19.4141C5.59723 19.7377 5.85957 20 6.18316 20H13.8168C14.1404 20 14.4028 19.7377 14.4028 19.4141C14.4028 19.0905 14.1404 18.8281 13.8168 18.8281H12.8668V16.9661H19.4141C19.7377 16.9661 20 16.7037 20 16.3801V0.585938C20 0.262344 19.7377 0 19.4141 0ZM1.17188 1.17188H18.8281V13.1045H1.17188V1.17188ZM11.6949 18.8281H8.30508V16.9661H11.6949V18.8281H11.6949ZM18.8281 15.7942H11.6949H8.30508H1.17188V14.2763H18.8281V15.7942Z" fill="#8C8C8C"/>
<path d="M15.6445 3.53598H6.26824L6.18383 2.77855C6.15074 2.48187 5.89996 2.2575 5.60148 2.2575H4.35547C4.03187 2.2575 3.76953 2.51984 3.76953 2.84344C3.76953 3.16703 4.03187 3.42937 4.35547 3.42937H5.07723L5.16098 4.18074L5.63105 9.37789C5.65836 9.67981 5.91145 9.91102 6.21461 9.91102H6.5727C6.52844 10.0594 6.5043 10.2164 6.5043 10.3789C6.5043 11.2831 7.23992 12.0188 8.1441 12.0188C9.04828 12.0188 9.78391 11.2832 9.78391 10.3789C9.78391 10.2164 9.75977 10.0594 9.71551 9.91102H10.7898C10.7455 10.0594 10.7214 10.2164 10.7214 10.3789C10.7214 11.2831 11.457 12.0188 12.3612 12.0188C13.2654 12.0188 14.001 11.2832 14.001 10.3789C14.001 10.2164 13.9769 10.0594 13.9326 9.91102H14.2326C14.4971 9.91102 14.7288 9.73379 14.7981 9.47852L16.21 4.27531C16.2578 4.09922 16.2208 3.9109 16.1099 3.76594C15.9991 3.62098 15.827 3.53598 15.6445 3.53598ZM8.61207 10.379C8.61207 10.637 8.40215 10.8469 8.14414 10.8469C7.88613 10.8469 7.67621 10.637 7.67621 10.379C7.67621 10.121 7.88613 9.91106 8.14414 9.91106C8.40215 9.91106 8.61207 10.121 8.61207 10.379ZM12.8292 10.379C12.8292 10.637 12.6193 10.8469 12.3612 10.8469C12.1032 10.8469 11.8933 10.637 11.8933 10.379C11.8933 10.121 12.1032 9.91106 12.3612 9.91106C12.6193 9.91106 12.8292 10.121 12.8292 10.379ZM13.7845 8.73918H6.74992L6.38531 4.70785H14.8784L13.7845 8.73918Z" fill="#8C8C8C"/>
</g>
<defs>
<clipPath id="clip0_61_932">
<rect width="20" height="20" fill="white"/>
</clipPath>
</defs>
</svg>
