<svg width="17" height="16" viewBox="0 0 17 16" fill="none" xmlns="http://www.w3.org/2000/svg">
<g clip-path="url(#clip0_72_1237)">
<path d="M16.6357 3.0625C16.0107 3.3125 15.3857 3.47917 14.7607 3.5625C15.4691 3.14583 15.9482 2.54167 16.1982 1.75C15.5316 2.125 14.8441 2.39583 14.1357 2.5625C13.4691 1.85417 12.667 1.5 11.7295 1.5C10.792 1.5 10.0107 1.82292 9.38574 2.46875C8.76074 3.11458 8.44824 3.89583 8.44824 4.8125C8.44824 5.02083 8.46908 5.27083 8.51074 5.5625C7.17741 5.47917 5.92741 5.13542 4.76074 4.53125C3.59408 3.92708 2.59408 3.125 1.76074 2.125C1.46908 2.625 1.32324 3.16667 1.32324 3.75C1.32324 4.33333 1.44824 4.86458 1.69824 5.34375C1.94824 5.82292 2.30241 6.20833 2.76074 6.5C2.21908 6.45833 1.71908 6.3125 1.26074 6.0625V6.125C1.26074 6.91667 1.51074 7.61458 2.01074 8.21875C2.51074 8.82292 3.13574 9.1875 3.88574 9.3125C3.63574 9.39583 3.36491 9.4375 3.07324 9.4375C2.86491 9.4375 2.65658 9.41667 2.44824 9.375C2.65658 10.0417 3.04199 10.5833 3.60449 11C4.16699 11.4167 4.80241 11.6458 5.51074 11.6875C4.30241 12.6042 2.94824 13.0625 1.44824 13.0625C1.15658 13.0625 0.885742 13.0417 0.635742 13C2.17741 14 3.86491 14.5 5.69824 14.5C6.86491 14.5 7.95866 14.3125 8.97949 13.9375C10.0003 13.5625 10.8649 13.0729 11.5732 12.4688C12.2816 11.8646 12.8962 11.1562 13.417 10.3438C13.9378 9.53125 14.3337 8.6875 14.6045 7.8125C14.8753 6.9375 15.0107 6.0625 15.0107 5.1875V4.75C15.6357 4.29167 16.1774 3.72917 16.6357 3.0625Z" fill="#8C8C8C"/>
</g>
<defs>
<clipPath id="clip0_72_1237">
<rect width="16" height="16" fill="white" transform="matrix(1 0 0 -1 0.635742 16)"/>
</clipPath>
</defs>
</svg>
