<svg width="60" height="60" viewBox="0 0 60 60" fill="none" xmlns="http://www.w3.org/2000/svg">
<g clip-path="url(#clip0_636_1123)">
<path d="M58.2422 0H1.75781C0.787031 0 0 0.787031 0 1.75781V49.1404C0 50.1111 0.787031 50.8982 1.75781 50.8982H20.8137V56.4844H17.9636C16.9928 56.4844 16.2057 57.2714 16.2057 58.2422C16.2057 59.213 16.9928 60 17.9636 60H42.0364C43.0072 60 43.7943 59.213 43.7943 58.2422C43.7943 57.2714 43.0072 56.4844 42.0364 56.4844H39.1863V50.8982H58.2422C59.213 50.8982 60 50.1111 60 49.1404V1.75781C60 0.787031 59.213 0 58.2422 0ZM3.51562 3.51562H56.4844V39.3132H3.51562V3.51562ZM35.6707 56.4844H24.3293V50.8982H35.6706V56.4844H35.6707ZM56.4844 47.3825H3.51562V42.8289H56.4844V47.3825Z" fill="#1B1F23"/>
<path d="M50.8803 24.864H13.671C13.294 24.864 12.9268 24.9853 12.624 25.2098L7.97062 28.6602C7.52344 28.9918 7.25977 29.5155 7.25977 30.0722C7.25977 30.6288 7.52344 31.1526 7.97062 31.4842L12.624 34.9345C12.9268 35.1591 13.294 35.2803 13.671 35.2803H50.8803C51.8511 35.2803 52.6382 34.4933 52.6382 33.5225V26.6217C52.6382 25.651 51.8511 24.864 50.8803 24.864ZM11.9688 30.0723L14.2515 28.3798H41.8345V31.765H14.2515L11.9688 30.0723ZM49.1225 31.7648H45.3503V28.3796H49.1225V31.7648Z" fill="#1B1F23"/>
<path d="M50.931 7.30444H9.06836C8.09758 7.30444 7.31055 8.09147 7.31055 9.06226V19.5905C7.31055 20.5613 8.09758 21.3483 9.06836 21.3483H50.9311C51.9019 21.3483 52.6889 20.5613 52.6889 19.5905V9.06226C52.6888 8.09147 51.9018 7.30444 50.931 7.30444ZM49.1732 17.8327H44.3334V15.6017C44.3334 14.6309 43.5463 13.8439 42.5755 13.8439C41.6048 13.8439 40.8177 14.6309 40.8177 15.6017V17.8327H35.9779V15.6017C35.9779 14.6309 35.1909 13.8439 34.2201 13.8439C33.2493 13.8439 32.4623 14.6309 32.4623 15.6017V17.8327H27.6225V15.6017C27.6225 14.6309 26.8355 13.8439 25.8647 13.8439C24.8939 13.8439 24.1069 14.6309 24.1069 15.6017V17.8327H19.2672V15.6017C19.2672 14.6309 18.4802 13.8439 17.5094 13.8439C16.5386 13.8439 15.7516 14.6309 15.7516 15.6017V17.8327H10.8262V10.8201H49.1733L49.1732 17.8327Z" fill="#1B1F23"/>
</g>
<defs>
<clipPath id="clip0_636_1123">
<rect width="60" height="60" fill="white"/>
</clipPath>
</defs>
</svg>
