<svg width="20" height="20" viewBox="0 0 20 20" fill="none" xmlns="http://www.w3.org/2000/svg">
<g clip-path="url(#clip0_61_936)">
<path d="M19.4134 15.1387H18.8384V4.11919C18.8384 3.79522 18.5758 3.53257 18.2518 3.53257H13.1726C12.6642 2.78869 11.9772 2.16308 11.1503 1.72256L10.27 1.25354C10.0976 1.16163 9.89069 1.16163 9.7183 1.25354L8.83798 1.72256C8.011 2.16315 7.32391 2.78888 6.81546 3.53296C6.81296 3.53292 6.81049 3.53257 6.80799 3.53257H1.75987C1.4359 3.53257 1.17325 3.79522 1.17325 4.11919V15.1387H0.586623C0.26265 15.1387 0 15.4014 0 15.7253V17.0555C0 18.0259 0.789477 18.8154 1.75987 18.8154H18.2401C19.2105 18.8154 20 18.0259 20 17.0555V15.7253C20 15.4014 19.7374 15.1387 19.4134 15.1387ZM17.6652 4.70581V15.1387H16.4354V13.015C16.4354 11.654 15.4545 10.5185 14.1626 10.2765V6.74061C14.1626 6.03205 14.0314 5.34441 13.7871 4.70581H17.6652ZM12.9894 12.5665H6.99892V7.32727H12.9894V12.5665ZM5.88836 13.417L6.75547 15.1387H4.72614V13.0149C4.72614 12.3049 5.18731 11.701 5.82563 11.4858V13.1531C5.82567 13.2448 5.84714 13.3351 5.88836 13.417ZM7.36458 13.7397H12.6238L11.9192 15.1387H8.06915L7.36458 13.7397ZM14.0999 13.417C14.1412 13.3351 14.1626 13.2448 14.1626 13.1531V11.4858C14.801 11.7011 15.2622 12.305 15.2622 13.015V15.1387H13.2328L14.0999 13.417ZM9.38968 2.75803L9.99417 2.43597L10.5987 2.75803C11.8986 3.45063 12.7646 4.71872 12.9515 6.15403H7.03689C7.22379 4.71868 8.08972 3.45063 9.38968 2.75803ZM2.34649 4.70581H6.20127C5.95696 5.34441 5.82571 6.03205 5.82571 6.74061V10.2765C4.53389 10.5185 3.55298 11.654 3.55298 13.015V15.1387H2.34649V4.70581ZM18.8268 17.0555C18.8268 17.379 18.5636 17.6422 18.2401 17.6422H1.75987C1.4364 17.6422 1.17325 17.379 1.17325 17.0555V16.3119H18.8268V17.0555Z" fill="#8C8C8C"/>
<path d="M9.99438 11.7235C9.01476 11.7235 8.21777 10.9265 8.21777 9.9469C8.21777 8.96724 9.01476 8.17025 9.99438 8.17025C10.974 8.17025 11.771 8.96724 11.771 9.9469C11.771 10.9265 10.974 11.7235 9.99438 11.7235ZM9.99438 9.3435C9.66169 9.3435 9.39102 9.61416 9.39102 9.9469C9.39102 10.2796 9.66169 10.5503 9.99438 10.5503C10.3271 10.5503 10.5978 10.2796 10.5978 9.9469C10.5977 9.61416 10.3271 9.3435 9.99438 9.3435Z" fill="#8C8C8C"/>
</g>
<defs>
<clipPath id="clip0_61_936">
<rect width="20" height="20" fill="white"/>
</clipPath>
</defs>
</svg>
