<svg width="62" height="62" viewBox="0 0 62 62" fill="none" xmlns="http://www.w3.org/2000/svg">
<rect width="62" height="62" rx="31" fill="#4CAF50"/>
<path d="M40.3999 21.5466C39.1775 20.3119 37.7215 19.3329 36.1168 18.6667C34.5121 18.0006 32.7908 17.6606 31.0533 17.6666C23.7733 17.6666 17.8399 23.6 17.8399 30.88C17.8399 33.2133 18.4533 35.48 19.5999 37.48L17.7333 44.3333L24.7333 42.4933C26.6666 43.5466 28.8399 44.1066 31.0533 44.1066C38.3333 44.1066 44.2666 38.1733 44.2666 30.8933C44.2666 27.36 42.8933 24.04 40.3999 21.5466ZM31.0533 41.8666C29.0799 41.8666 27.1466 41.3333 25.4533 40.3333L25.0533 40.0933L20.8933 41.1866L21.9999 37.1333L21.7333 36.72C20.6369 34.9693 20.0548 32.9456 20.0533 30.88C20.0533 24.8266 24.9866 19.8933 31.0399 19.8933C33.9733 19.8933 36.7333 21.04 38.7999 23.12C39.8233 24.1386 40.6342 25.3502 41.1858 26.6845C41.7374 28.0189 42.0187 29.4495 42.0133 30.8933C42.0399 36.9466 37.1066 41.8666 31.0533 41.8666ZM37.0799 33.6533C36.7466 33.4933 35.1199 32.6933 34.8266 32.5733C34.5199 32.4666 34.3066 32.4133 34.0799 32.7333C33.8533 33.0666 33.2266 33.8133 33.0399 34.0266C32.8533 34.2533 32.6533 34.28 32.3199 34.1066C31.9866 33.9466 30.9199 33.5866 29.6666 32.4666C28.6799 31.5866 28.0266 30.5066 27.8266 30.1733C27.6399 29.84 27.7999 29.6666 27.9733 29.4933C28.1199 29.3466 28.3066 29.1066 28.4666 28.92C28.6266 28.7333 28.6933 28.5866 28.7999 28.3733C28.9066 28.1466 28.8533 27.96 28.7733 27.8C28.6933 27.64 28.0266 26.0133 27.7599 25.3466C27.4933 24.7066 27.2133 24.7866 27.0133 24.7733H26.3733C26.1466 24.7733 25.7999 24.8533 25.4933 25.1866C25.1999 25.52 24.3466 26.32 24.3466 27.9466C24.3466 29.5733 25.5333 31.1466 25.6933 31.36C25.8533 31.5866 28.0266 34.92 31.3333 36.3466C32.1199 36.6933 32.7333 36.8933 33.2133 37.04C33.9999 37.2933 34.7199 37.2533 35.2933 37.1733C35.9333 37.08 37.2533 36.3733 37.5199 35.6C37.7999 34.8266 37.7999 34.1733 37.7066 34.0266C37.6133 33.88 37.4133 33.8133 37.0799 33.6533Z" fill="white"/>
</svg>
