<svg width="51" height="50" viewBox="0 0 51 50" fill="none" xmlns="http://www.w3.org/2000/svg">
<g clip-path="url(#clip0_239_650)">
<path d="M44.3183 39.8495C42.3853 39.8495 40.7381 41.0926 40.1315 42.821H35.9701V29.6338H41.7743C46.6777 29.6338 50.6671 25.644 50.6671 20.7398C50.6671 18.6011 49.8968 16.5338 48.4982 14.9189C47.3214 13.5602 45.7661 12.5939 44.048 12.1398C42.9238 9.15586 40.0694 7.14346 36.8095 7.14346C36.4805 7.14346 36.1522 7.16455 35.8265 7.20645C33.7719 3.56943 29.9038 1.27783 25.667 1.27783C21.4302 1.27783 17.5621 3.56943 15.5076 7.20635C15.1819 7.16445 14.8536 7.14336 14.5247 7.14336C11.2647 7.14336 8.41035 9.15576 7.28623 12.1397C5.56807 12.5938 4.01279 13.5601 2.83594 14.9188C1.4373 16.5338 0.666992 18.6011 0.666992 20.7398C0.666992 25.644 4.65625 29.6338 9.55976 29.6338H15.4623V42.8209H11.2024C10.5959 41.0926 8.94873 39.8494 7.01572 39.8494C4.56953 39.8494 2.5793 41.8396 2.5793 44.2857C2.5793 46.732 4.56943 48.7222 7.01572 48.7222C8.94873 48.7222 10.596 47.4791 11.2024 45.7506H16.9271C17.7361 45.7506 18.392 45.0947 18.392 44.2857V29.6338H24.2021V40.0878C24.2021 40.0915 24.2026 40.0952 24.2027 40.0989C22.474 40.7053 21.2307 42.3526 21.2307 44.2857C21.2307 46.732 23.2208 48.7222 25.6671 48.7222C28.1134 48.7222 30.1035 46.732 30.1035 44.2857C30.1035 42.3525 28.8601 40.7053 27.1314 40.0989C27.1314 40.0952 27.132 40.0915 27.132 40.0878V29.6338H33.0406V44.2857C33.0406 45.0947 33.6965 45.7506 34.5055 45.7506H40.1317C40.7383 47.479 42.3854 48.7222 44.3185 48.7222C46.7646 48.7222 48.7549 46.732 48.7549 44.2857C48.7547 41.8396 46.7646 39.8495 44.3183 39.8495ZM7.01572 45.7925C6.18496 45.7925 5.50898 45.1166 5.50898 44.2857C5.50898 43.455 6.18486 42.7791 7.01572 42.7791C7.84658 42.7791 8.52246 43.455 8.52246 44.2857C8.52236 45.1166 7.84648 45.7925 7.01572 45.7925ZM25.667 45.7925C24.8362 45.7925 24.1603 45.1166 24.1603 44.2857C24.1603 43.455 24.8361 42.7791 25.667 42.7791C26.4979 42.7791 27.1737 43.455 27.1737 44.2857C27.1737 45.1166 26.4978 45.7925 25.667 45.7925ZM3.59668 20.7398C3.59668 19.3055 4.11299 17.9193 5.05049 16.8369C5.9791 15.7647 7.25752 15.0569 8.65 14.8442C9.23701 14.7545 9.71182 14.3193 9.85215 13.7424C10.3775 11.5819 12.299 10.0731 14.5247 10.0731C14.9877 10.0731 15.4488 10.1404 15.8953 10.2733C16.6046 10.4838 17.3597 10.1331 17.6555 9.45508C19.0465 6.26728 22.1911 4.20752 25.667 4.20752C29.1429 4.20752 32.2875 6.26729 33.6785 9.45498C33.9744 10.1332 34.7294 10.484 35.4387 10.2732C35.8852 10.1404 36.3463 10.073 36.8094 10.073C39.0352 10.073 40.9565 11.5818 41.4819 13.7423C41.6223 14.3192 42.097 14.7544 42.6841 14.8441C44.0766 15.0569 45.355 15.7646 46.2836 16.8368C47.2211 17.9192 47.7374 19.3053 47.7374 20.7397C47.7374 24.0285 45.0624 26.704 41.7743 26.704H9.55976C6.27168 26.7041 3.59668 24.0286 3.59668 20.7398ZM44.3183 45.7925C43.4875 45.7925 42.8115 45.1166 42.8115 44.2857C42.8115 43.455 43.4874 42.7791 44.3183 42.7791C45.1491 42.7791 45.825 43.455 45.825 44.2857C45.825 45.1166 45.1491 45.7925 44.3183 45.7925Z" fill="#1B1F23"/>
</g>
<defs>
<clipPath id="clip0_239_650">
<rect width="50" height="50" fill="white" transform="translate(0.666992)"/>
</clipPath>
</defs>
</svg>
