<svg width="51" height="50" viewBox="0 0 51 50" fill="none" xmlns="http://www.w3.org/2000/svg">
<g clip-path="url(#clip0_239_664)">
<path d="M50.333 25C50.333 24.191 49.6771 23.5352 48.8682 23.5352H26.7979V17.7936H34.8476C35.2361 17.7936 35.6086 17.6392 35.8833 17.3645C36.158 17.0897 36.3124 16.7172 36.3124 16.3287L36.3122 1.46484C36.3122 0.655859 35.6563 0 34.8474 0H28.7985C28.1598 0 27.5946 0.413867 27.402 1.02295L26.7679 3.02695H15.8185C15.0095 3.02695 14.3536 3.68281 14.3536 4.4918V16.3288C14.3536 17.1378 15.0095 17.7937 15.8185 17.7937H23.8682V23.5352H1.79785C0.988867 23.5352 0.333008 24.191 0.333008 25V48.5352C0.333008 49.3441 0.988867 50 1.79785 50H20.8269C21.2154 50 21.5879 49.8456 21.8626 49.5709C22.1373 49.2962 22.2917 48.9236 22.2917 48.5352L22.2916 33.6713C22.2916 32.8623 21.6357 32.2064 20.8268 32.2064H14.7779C14.1392 32.2064 13.574 32.6203 13.3813 33.2294L12.7473 35.2334H3.2627V26.4648H47.4033V32.2064H42.8191C42.1804 32.2064 41.6152 32.6203 41.4226 33.2294L40.7885 35.2334H29.8392C29.0302 35.2334 28.3743 35.8893 28.3743 36.6982V48.5352C28.3743 49.3441 29.0302 50 29.8392 50H48.8682C49.2567 50 49.6292 49.8456 49.9039 49.5709C50.1787 49.2962 50.333 48.9236 50.333 48.5352V25ZM17.2833 5.95654H27.8406C28.4794 5.95654 29.0445 5.54268 29.2372 4.93359L29.8714 2.92969H33.3825L33.3826 14.8639H17.2833V5.95654ZM13.82 38.163C14.4588 38.163 15.0239 37.7491 15.2166 37.14L15.8507 35.136H19.3618L19.362 47.0703H3.2627V38.163H13.82ZM31.304 47.0703V38.163H41.8613C42.5001 38.163 43.0652 37.7491 43.2579 37.14L43.892 35.136H47.4031L47.4033 47.0703H31.304Z" fill="black"/>
</g>
<defs>
<clipPath id="clip0_239_664">
<rect width="50" height="50" fill="white" transform="translate(0.333008)"/>
</clipPath>
</defs>
</svg>
