<svg width="51" height="50" viewBox="0 0 51 50" fill="none" xmlns="http://www.w3.org/2000/svg">
<g clip-path="url(#clip0_239_641)">
<path d="M48.8664 37.8468H47.4291V10.298C47.4291 9.48807 46.7725 8.83144 45.9626 8.83144H33.2644C31.9934 6.97175 30.2759 5.40772 28.2087 4.30643L26.0079 3.13387C25.5769 2.90411 25.0597 2.90411 24.6288 3.13387L22.428 4.30643C20.3605 5.40791 18.6428 6.97224 17.3717 8.83242C17.3654 8.83232 17.3592 8.83144 17.353 8.83144H4.73268C3.92275 8.83144 3.26612 9.48807 3.26612 10.298V37.8468H1.79956C0.989634 37.8468 0.333008 38.5034 0.333008 39.3133V42.6389C0.333008 45.0649 2.3067 47.0386 4.73268 47.0386H45.9333C48.3593 47.0386 50.333 45.0649 50.333 42.6389V39.3133C50.333 38.5034 49.6765 37.8468 48.8664 37.8468ZM44.496 11.7646V37.8468H41.4215V32.5375C41.4215 29.1349 38.9692 26.2963 35.7396 25.6912V16.8516C35.7396 15.0801 35.4115 13.361 34.8007 11.7646H44.496ZM32.8065 31.4162H17.8303V18.3182H32.8065V31.4162ZM15.0539 33.5424L17.2217 37.8467H12.1484V32.5374C12.1484 30.7623 13.3013 29.2526 14.8971 28.7145V32.8827C14.8972 33.112 14.9509 33.3379 15.0539 33.5424ZM18.7445 34.3493H31.8924L30.131 37.8467H20.5059L18.7445 34.3493ZM35.5829 33.5424C35.6859 33.3378 35.7396 33.1119 35.7396 32.8828V28.7146C37.3355 29.2527 38.4884 30.7624 38.4884 32.5375V37.8468H33.4151L35.5829 33.5424ZM23.8072 6.8951L25.3184 6.08996L26.8297 6.8951C30.0796 8.62661 32.2444 11.7968 32.7116 15.3851H17.9252C18.3925 11.7967 20.5573 8.62661 23.8072 6.8951ZM6.19923 11.7646H15.8362C15.2254 13.361 14.8973 15.0801 14.8973 16.8516V25.6912C11.6677 26.2962 9.21545 29.1349 9.21545 32.5375V37.8468H6.19923V11.7646ZM47.3999 42.6389C47.3999 43.4476 46.742 44.1055 45.9333 44.1055H4.73268C3.92402 44.1055 3.26612 43.4476 3.26612 42.6389V40.7799H47.3999V42.6389Z" fill="#1B1F23"/>
<path d="M25.3185 29.3088C22.8694 29.3088 20.877 27.3163 20.877 24.8673C20.877 22.4181 22.8694 20.4257 25.3185 20.4257C27.7675 20.4257 29.7601 22.4181 29.7601 24.8673C29.76 27.3163 27.7675 29.3088 25.3185 29.3088ZM25.3185 23.3588C24.4867 23.3588 23.8101 24.0354 23.8101 24.8673C23.8101 25.699 24.4867 26.3757 25.3185 26.3757C26.1502 26.3757 26.827 25.699 26.827 24.8673C26.8269 24.0354 26.1502 23.3588 25.3185 23.3588Z" fill="#1B1F23"/>
</g>
<defs>
<clipPath id="clip0_239_641">
<rect width="50" height="50" fill="white" transform="translate(0.333008)"/>
</clipPath>
</defs>
</svg>
