<svg width="50" height="50" viewBox="0 0 50 50" fill="none" xmlns="http://www.w3.org/2000/svg">
<g clip-path="url(#clip0_239_657)">
<path d="M50 19.462C50 17.3232 49.2297 15.256 47.8311 13.6411C46.6543 12.2823 45.0989 11.3162 43.3809 10.862C42.2567 7.87803 39.4023 5.86562 36.1424 5.86562C35.8133 5.86562 35.4852 5.88662 35.1594 5.92852C33.1049 2.2915 29.2368 0 25 0C20.7632 0 16.8951 2.2915 14.8406 5.92852C14.5149 5.88662 14.1866 5.86562 13.8576 5.86562C10.5977 5.86562 7.74326 7.87803 6.61914 10.862C4.90098 11.3162 3.3457 12.2823 2.16895 13.6411C0.770312 15.256 0 17.3232 0 19.462C0 24.3651 3.9875 28.3542 8.88945 28.356V33.0469C8.88945 37.7157 11.521 42.1129 16.4996 45.7633C18.5086 47.2362 20.4578 48.2618 21.7393 48.8629C22.4682 49.2048 24.2451 50 24.9999 50C25.6854 50 27.172 49.3227 28.2983 48.7545C29.5692 48.1134 31.5063 47.0301 33.5173 45.5104C38.4849 41.7564 41.1105 37.4466 41.1105 33.0469V28.356C46.0125 28.3542 50 24.3651 50 19.462ZM38.1809 33.0469C38.1809 37.2752 34.8659 40.7479 32.085 42.9166C29.1771 45.1843 25.9814 46.6901 24.983 47.0308C24.0348 46.7362 20.8934 45.42 17.9182 43.1667C15.1358 41.0594 11.8192 37.5932 11.8192 33.0469V22.1523C14.5309 21.7164 16.9394 20.0887 18.3508 17.7137H31.6494C33.0608 20.0887 35.4693 21.7164 38.181 22.1523V33.0469H38.1809ZM41.1105 25.4263V20.8045C41.1105 19.9955 40.4547 19.3396 39.6457 19.3396C37.1699 19.3396 34.8997 17.8856 33.862 15.6354C33.6227 15.1164 33.1033 14.784 32.5317 14.784H17.4683C16.8967 14.784 16.3773 15.1164 16.138 15.6354C15.1004 17.8856 12.8301 19.3396 10.3543 19.3396C9.54531 19.3396 8.88945 19.9955 8.88945 20.8045V25.4263C5.60293 25.4245 2.92969 22.7497 2.92969 19.462C2.92969 18.0276 3.446 16.6415 4.3835 15.5591C5.31211 14.4869 6.59053 13.7792 7.98301 13.5664C8.57002 13.4767 9.04482 13.0415 9.18516 12.4645C9.71055 10.304 11.632 8.79522 13.8577 8.79522C14.3208 8.79522 14.7819 8.8625 15.2282 8.99531C15.9373 9.20625 16.6927 8.85527 16.9885 8.17715C18.3795 4.98945 21.5241 2.92969 25 2.92969C28.4759 2.92969 31.6205 4.98945 33.0115 8.17715C33.3074 8.85527 34.0628 9.20615 34.7718 8.99531C35.2181 8.8625 35.6792 8.79522 36.1424 8.79522C38.3682 8.79522 40.2896 10.3041 40.8149 12.4645C40.9553 13.0415 41.43 13.4767 42.0171 13.5664C43.4096 13.7792 44.688 14.4868 45.6166 15.5591C46.5541 16.6415 47.0704 18.0275 47.0704 19.462C47.0703 22.7497 44.3971 25.4245 41.1105 25.4263Z" fill="#1B1F23"/>
<path d="M30.5869 22.6543C30.3476 22.1353 29.8282 21.8029 29.2566 21.8029H20.7426C20.171 21.8029 19.6518 22.1353 19.4123 22.6542C18.9295 23.7012 17.8733 24.3777 16.7217 24.3777C15.9127 24.3777 15.2568 25.0335 15.2568 25.8425V32.762C15.2568 35.612 16.8343 38.275 19.8185 40.463C21.7525 41.8811 24.1917 42.981 24.9995 42.981C25.9398 42.981 28.5659 41.5477 30.1977 40.3146C33.1708 38.0678 34.7424 35.4562 34.7424 32.762V25.8425C34.7424 25.4539 34.588 25.0815 34.3133 24.8068C34.0386 24.5321 33.666 24.3777 33.2775 24.3777C32.1258 24.3778 31.0696 23.7013 30.5869 22.6543ZM31.8127 32.7621C31.8127 34.8663 30.1149 36.6506 28.6906 37.777C27.2092 38.9486 25.6337 39.7207 24.976 39.9887C23.5205 39.4548 18.1865 36.8195 18.1865 32.7621V27.1211C19.5648 26.765 20.7814 25.9162 21.5901 24.7326H28.4092C29.2178 25.9162 30.4344 26.765 31.8127 27.1211V32.7621Z" fill="#1B1F23"/>
</g>
<defs>
<clipPath id="clip0_239_657">
<rect width="50" height="50" fill="white"/>
</clipPath>
</defs>
</svg>
