<svg width="50" height="50" viewBox="0 0 50 50" fill="none" xmlns="http://www.w3.org/2000/svg">
<g clip-path="url(#clip0_239_631)">
<path d="M37.1032 7.93501C37.8982 7.93501 38.6599 7.24321 38.6232 6.43101C38.5862 5.61606 37.9553 4.927 37.1032 4.927C36.3082 4.927 35.5466 5.6188 35.5833 6.43101C35.6202 7.24585 36.2511 7.93501 37.1032 7.93501Z" fill="#1B1F23"/>
<path d="M31.5886 7.93501C32.3836 7.93501 33.1452 7.24321 33.1085 6.43101C33.0716 5.61606 32.4407 4.927 31.5886 4.927C30.7936 4.927 30.0319 5.6188 30.0687 6.43101C30.1055 7.24585 30.7364 7.93501 31.5886 7.93501Z" fill="#1B1F23"/>
<path d="M46.335 40.1226H39.4632C38.6542 40.1226 37.9983 40.7784 37.9983 41.5874V43.5582H35.3031V30.4267H42.1583C42.9673 30.4267 43.6231 29.7708 43.6231 28.9618V1.46484C43.6231 0.655859 42.9673 0 42.1583 0H7.7833C6.97432 0 6.31846 0.655859 6.31846 1.46484V28.9618C6.31846 29.7708 6.97432 30.4267 7.7833 30.4267H14.8006C14.7981 30.4612 14.7953 30.4957 14.7953 30.5309V43.5581H12.0018V41.6639C12.0018 40.8549 11.3459 40.199 10.5369 40.199H3.66504C2.85605 40.199 2.2002 40.8549 2.2002 41.6639V48.5352C2.2002 49.3441 2.85605 50 3.66504 50H10.5368C11.3458 50 12.0017 49.3441 12.0017 48.5352V46.4879H16.2601C17.069 46.4879 17.7249 45.832 17.7249 45.023V30.531C17.7249 30.4958 17.7221 30.4613 17.7196 30.4268H23.5896V40.0606H21.6133C20.8043 40.0606 20.1484 40.7165 20.1484 41.5255V48.3967C20.1484 49.2057 20.8043 49.8615 21.6133 49.8615H28.4851C29.294 49.8615 29.9499 49.2057 29.9499 48.3967V41.5255C29.9499 40.7165 29.294 40.0606 28.4851 40.0606H26.5089V30.4268H32.3733V45.0231C32.3733 45.8321 33.0292 46.488 33.8382 46.488H37.9982V48.4588C37.9982 49.2678 38.6541 49.9236 39.4631 49.9236H46.3349C47.1438 49.9236 47.7997 49.2678 47.7997 48.4588V41.5876C47.7998 40.7784 47.1439 40.1226 46.335 40.1226ZM9.07197 47.0703H5.12988V43.1288H9.07197V47.0703ZM27.0203 46.9318H23.0781V42.9903H27.0202L27.0203 46.9318ZM40.6935 2.92969V9.89238H9.24814V2.92969H40.6935ZM9.24814 12.862H40.6935V27.497H9.24814V12.862ZM44.8701 46.9938H40.928V43.0523H44.8701V46.9938Z" fill="#1B1F23"/>
<path d="M25.8013 18.6947H14.084C13.275 18.6947 12.6191 19.3506 12.6191 20.1595C12.6191 20.9685 13.275 21.6244 14.084 21.6244H25.8013C26.6103 21.6244 27.2661 20.9685 27.2661 20.1595C27.2661 19.3506 26.6103 18.6947 25.8013 18.6947Z" fill="#1B1F23"/>
<path d="M35.916 18.6947H31.9297C31.1207 18.6947 30.4648 19.3506 30.4648 20.1595C30.4648 20.9685 31.1207 21.6244 31.9297 21.6244H35.916C36.725 21.6244 37.3809 20.9685 37.3809 20.1595C37.3809 19.3506 36.7251 18.6947 35.916 18.6947Z" fill="#1B1F23"/>
</g>
<defs>
<clipPath id="clip0_239_631">
<rect width="50" height="50" fill="white"/>
</clipPath>
</defs>
</svg>
