<svg width="51" height="50" viewBox="0 0 51 50" fill="none" xmlns="http://www.w3.org/2000/svg">
<g clip-path="url(#clip0_239_670)">
<path d="M49.2021 27.0589H45.7506V6.65515C45.7506 5.84617 45.0947 5.19031 44.2857 5.19031C43.4768 5.19031 42.8209 5.84617 42.8209 6.65515V27.0589H8.51309V6.65515C8.51309 5.84617 7.85723 5.19031 7.04824 5.19031C6.23926 5.19031 5.5834 5.84617 5.5834 6.65515V27.0589H2.13184C1.32285 27.0589 0.666992 27.7147 0.666992 28.5237V43.3448C0.666992 44.1538 1.32285 44.8096 2.13184 44.8096H49.2021C50.0111 44.8096 50.667 44.1538 50.667 43.3448V28.5237C50.667 27.7147 50.0111 27.0589 49.2021 27.0589ZM47.7373 41.88H3.59668V29.9886H47.7373V41.88Z" fill="#1B1F23"/>
<path d="M8.20898 37.399H19.6958C20.5048 37.399 21.1606 36.7432 21.1606 35.9342C21.1606 35.1252 20.5048 34.4694 19.6958 34.4694H8.20898C7.4 34.4694 6.74414 35.1252 6.74414 35.9342C6.74414 36.7432 7.4 37.399 8.20898 37.399Z" fill="#1B1F23"/>
<path d="M20.64 19.8381C20.0679 20.4101 20.0679 21.3376 20.64 21.9097C21.212 22.4817 22.1395 22.4817 22.7116 21.9097C24.3414 20.28 26.993 20.2798 28.623 21.9097C28.909 22.1957 29.2839 22.3388 29.6587 22.3388C30.0335 22.3388 30.4085 22.1957 30.6945 21.9097C31.2666 21.3377 31.2666 20.4102 30.6945 19.8381C27.9226 17.066 23.4121 17.0661 20.64 19.8381Z" fill="#1B1F23"/>
<path d="M33.5595 18.437C33.9343 18.437 34.3093 18.294 34.5953 18.0079C35.1673 17.436 35.1673 16.5084 34.5953 15.9364C32.2103 13.5513 29.0393 12.2379 25.6665 12.2379C22.2936 12.2379 19.1226 13.5513 16.7376 15.9364C16.1656 16.5083 16.1656 17.4359 16.7376 18.0079C17.3096 18.5799 18.2372 18.5799 18.8092 18.0079C20.6409 16.1763 23.0761 15.1676 25.6665 15.1676C28.2567 15.1676 30.692 16.1763 32.5237 18.0079C32.8097 18.2941 33.1846 18.437 33.5595 18.437Z" fill="#1B1F23"/>
<path d="M14.4872 13.6853C17.4735 10.699 21.4439 9.05442 25.6671 9.05442C29.8904 9.05442 33.8608 10.699 36.8471 13.6853C37.1332 13.9713 37.5081 14.1144 37.8829 14.1144C38.2577 14.1144 38.6327 13.9713 38.9186 13.6853C39.4907 13.1133 39.4907 12.1858 38.9186 11.6137C31.6118 4.30666 19.7224 4.30666 12.4154 11.6137C11.8433 12.1857 11.8433 13.1132 12.4154 13.6853C12.9875 14.2572 13.9151 14.2572 14.4872 13.6853Z" fill="#1B1F23"/>
<path d="M43.2868 37.4385C44.0818 37.4385 44.8435 36.7466 44.8067 35.9343C44.7698 35.1193 44.139 34.4301 43.2868 34.4301C42.4918 34.4301 41.7302 35.1219 41.7669 35.9343C41.8038 36.7492 42.4348 37.4385 43.2868 37.4385Z" fill="#1B1F23"/>
<path d="M37.7722 37.4385C38.5672 37.4385 39.3288 36.7466 39.2921 35.9343C39.2552 35.1193 38.6242 34.4301 37.7722 34.4301C36.9772 34.4301 36.2155 35.1219 36.2523 35.9343C36.2891 36.7492 36.92 37.4385 37.7722 37.4385Z" fill="#1B1F23"/>
</g>
<defs>
<clipPath id="clip0_239_670">
<rect width="50" height="50" fill="white" transform="translate(0.666992)"/>
</clipPath>
</defs>
</svg>
