<svg width="70" height="70" viewBox="0 0 70 70" fill="none" xmlns="http://www.w3.org/2000/svg">
<g clip-path="url(#clip0_36_121)">
<path d="M70 37.0586C70 45.7951 66.5294 54.1739 60.3517 60.3515C54.1741 66.5291 45.7954 69.9998 37.0588 69.9998C28.3223 69.9998 19.9436 66.5291 13.766 60.3515C7.58825 54.1739 4.11768 45.7951 4.11768 37.0586H37.0588H70Z" fill="url(#paint0_linear_36_121)"/>
<path d="M36.0294 30.8824C42.2832 30.8824 47.3529 25.8127 47.3529 19.5589C47.3529 13.3051 42.2832 8.23535 36.0294 8.23535C29.7756 8.23535 24.7059 13.3051 24.7059 19.5589C24.7059 25.8127 29.7756 30.8824 36.0294 30.8824Z" fill="url(#paint1_linear_36_121)"/>
<path d="M65.8824 32.9414C65.8824 41.6779 62.4118 50.0566 56.2341 56.2343C50.0564 62.4121 41.6777 65.8826 32.9412 65.8826C24.2046 65.8826 15.8259 62.4121 9.64825 56.2343C3.47058 50.0566 1.31918e-06 41.6779 0 32.9414H32.9412H65.8824Z" fill="#181818"/>
<path d="M33.9706 28.8233C40.2244 28.8233 45.2941 23.7536 45.2941 17.4998C45.2941 11.246 40.2244 6.17627 33.9706 6.17627C27.7168 6.17627 22.647 11.246 22.647 17.4998C22.647 23.7536 27.7168 28.8233 33.9706 28.8233Z" fill="#181818"/>
</g>
<defs>
<linearGradient id="paint0_linear_36_121" x1="4.11768" y1="53.5987" x2="70" y2="53.5987" gradientUnits="userSpaceOnUse">
<stop stop-color="#00D9C0"/>
<stop offset="1" stop-color="#FF4365"/>
</linearGradient>
<linearGradient id="paint1_linear_36_121" x1="24.7059" y1="19.6067" x2="47.3529" y2="19.6067" gradientUnits="userSpaceOnUse">
<stop stop-color="#00D9C0"/>
<stop offset="1" stop-color="#FF4365"/>
</linearGradient>
<clipPath id="clip0_36_121">
<rect width="70" height="70" fill="white"/>
</clipPath>
</defs>
</svg>
