<svg width="70" height="70" viewBox="0 0 70 70" fill="none" xmlns="http://www.w3.org/2000/svg">
<g clip-path="url(#clip0_36_131)">
<path d="M38 70C28.9827 70 20.3346 66.3126 13.9584 59.7488C7.58213 53.1849 4 44.2826 4 35.0001C4 25.7174 7.58213 16.8151 13.9584 10.2513C20.3346 3.68749 28.9827 9.9588e-07 38 0V35.0001V70Z" fill="url(#paint0_linear_36_131)"/>
<path d="M60 52C55.2261 52 50.6477 50.2089 47.2721 47.0208C43.8963 43.8327 42 39.5086 42 35C42 30.4914 43.8963 26.1673 47.2721 22.9793C50.6477 19.7911 55.2261 18 60 18V35V52Z" fill="url(#paint1_linear_36_131)"/>
<path d="M34 70C24.9827 70 16.3346 66.3126 9.95838 59.7488C3.58215 53.1849 2.22211e-05 44.2826 2.19345e-05 35.0001C2.16479e-05 25.7174 3.58215 16.8151 9.95838 10.2513C16.3346 3.68749 24.9827 9.9588e-07 34 0V35.0001V70Z" fill="#181818"/>
<path d="M56 52C51.2261 52 46.6477 50.2089 43.2722 47.0208C39.8964 43.8327 38 39.5086 38 35C38 30.4914 39.8964 26.1673 43.2722 22.9793C46.6477 19.7911 51.2261 18 56 18V35V52Z" fill="#181818"/>
</g>
<defs>
<linearGradient id="paint0_linear_36_131" x1="38.3839" y1="70.9584" x2="38.3839" y2="-0.614633" gradientUnits="userSpaceOnUse">
<stop stop-color="#00D9C0"/>
<stop offset="1" stop-color="#FF4365"/>
</linearGradient>
<linearGradient id="paint1_linear_36_131" x1="60.2032" y1="52.4655" x2="60.2032" y2="17.7015" gradientUnits="userSpaceOnUse">
<stop stop-color="#00D9C0"/>
<stop offset="1" stop-color="#FF4365"/>
</linearGradient>
<clipPath id="clip0_36_131">
<rect width="70" height="70" fill="white"/>
</clipPath>
</defs>
</svg>
