<svg width="115" height="19" viewBox="0 0 115 19" fill="none" xmlns="http://www.w3.org/2000/svg">
<path d="M24.672 1.152L20.28 18H15.312L12.624 6.912L9.84 18H4.872L0.6 1.152H4.992L7.416 13.416L10.416 1.152H14.928L17.808 13.416L20.256 1.152H24.672ZM39.3542 11.088C39.3542 11.472 39.3302 11.872 39.2822 12.288H29.9942C30.0582 13.12 30.3222 13.76 30.7862 14.208C31.2662 14.64 31.8502 14.856 32.5382 14.856C33.5622 14.856 34.2742 14.424 34.6742 13.56H39.0422C38.8182 14.44 38.4102 15.232 37.8182 15.936C37.2422 16.64 36.5142 17.192 35.6342 17.592C34.7542 17.992 33.7702 18.192 32.6822 18.192C31.3702 18.192 30.2022 17.912 29.1782 17.352C28.1542 16.792 27.3542 15.992 26.7782 14.952C26.2022 13.912 25.9142 12.696 25.9142 11.304C25.9142 9.912 26.1942 8.696 26.7542 7.656C27.3302 6.616 28.1302 5.816 29.1542 5.256C30.1782 4.696 31.3542 4.416 32.6822 4.416C33.9782 4.416 35.1302 4.688 36.1382 5.232C37.1462 5.776 37.9302 6.552 38.4902 7.56C39.0662 8.568 39.3542 9.744 39.3542 11.088ZM35.1542 10.008C35.1542 9.304 34.9142 8.744 34.4342 8.328C33.9542 7.912 33.3542 7.704 32.6342 7.704C31.9462 7.704 31.3622 7.904 30.8822 8.304C30.4182 8.704 30.1302 9.272 30.0182 10.008H35.1542ZM45.6233 6.504C46.0073 5.88 46.5593 5.376 47.2793 4.992C47.9993 4.608 48.8233 4.416 49.7513 4.416C50.8553 4.416 51.8553 4.696 52.7513 5.256C53.6473 5.816 54.3513 6.616 54.8633 7.656C55.3913 8.696 55.6553 9.904 55.6553 11.28C55.6553 12.656 55.3913 13.872 54.8633 14.928C54.3513 15.968 53.6473 16.776 52.7513 17.352C51.8553 17.912 50.8553 18.192 49.7513 18.192C48.8073 18.192 47.9833 18.008 47.2793 17.64C46.5753 17.256 46.0233 16.752 45.6233 16.128V18H41.5193V0.24H45.6233V6.504ZM51.4793 11.28C51.4793 10.256 51.1913 9.456 50.6153 8.88C50.0553 8.288 49.3593 7.992 48.5273 7.992C47.7113 7.992 47.0153 8.288 46.4393 8.88C45.8793 9.472 45.5993 10.28 45.5993 11.304C45.5993 12.328 45.8793 13.136 46.4393 13.728C47.0153 14.32 47.7113 14.616 48.5273 14.616C49.3433 14.616 50.0393 14.32 50.6153 13.728C51.1913 13.12 51.4793 12.304 51.4793 11.28Z" fill="white"/>
<path d="M69.9283 1.152V4.44H65.4643V18H61.3603V4.44H56.8963V1.152H69.9283ZM84.612 11.088C84.612 11.472 84.588 11.872 84.54 12.288H75.252C75.316 13.12 75.58 13.76 76.044 14.208C76.524 14.64 77.108 14.856 77.796 14.856C78.82 14.856 79.532 14.424 79.932 13.56H84.3C84.076 14.44 83.668 15.232 83.076 15.936C82.5 16.64 81.772 17.192 80.892 17.592C80.012 17.992 79.028 18.192 77.94 18.192C76.628 18.192 75.46 17.912 74.436 17.352C73.412 16.792 72.612 15.992 72.036 14.952C71.46 13.912 71.172 12.696 71.172 11.304C71.172 9.912 71.452 8.696 72.012 7.656C72.588 6.616 73.388 5.816 74.412 5.256C75.436 4.696 76.612 4.416 77.94 4.416C79.236 4.416 80.388 4.688 81.396 5.232C82.404 5.776 83.188 6.552 83.748 7.56C84.324 8.568 84.612 9.744 84.612 11.088ZM80.412 10.008C80.412 9.304 80.172 8.744 79.692 8.328C79.212 7.912 78.612 7.704 77.892 7.704C77.204 7.704 76.62 7.904 76.14 8.304C75.676 8.704 75.388 9.272 75.276 10.008H80.412ZM85.9611 11.304C85.9611 9.912 86.2411 8.696 86.8011 7.656C87.3771 6.616 88.1691 5.816 89.1771 5.256C90.2011 4.696 91.3691 4.416 92.6811 4.416C94.3611 4.416 95.7611 4.856 96.8811 5.736C98.0171 6.616 98.7611 7.856 99.1131 9.456H94.7451C94.3771 8.432 93.6651 7.92 92.6091 7.92C91.8571 7.92 91.2571 8.216 90.8091 8.808C90.3611 9.384 90.1371 10.216 90.1371 11.304C90.1371 12.392 90.3611 13.232 90.8091 13.824C91.2571 14.4 91.8571 14.688 92.6091 14.688C93.6651 14.688 94.3771 14.176 94.7451 13.152H99.1131C98.7611 14.72 98.0171 15.952 96.8811 16.848C95.7451 17.744 94.3451 18.192 92.6811 18.192C91.3691 18.192 90.2011 17.912 89.1771 17.352C88.1691 16.792 87.3771 15.992 86.8011 14.952C86.2411 13.912 85.9611 12.696 85.9611 11.304ZM109.54 4.464C111.076 4.464 112.308 4.976 113.236 6C114.164 7.008 114.628 8.4 114.628 10.176V18H110.548V10.728C110.548 9.832 110.316 9.136 109.852 8.64C109.388 8.144 108.764 7.896 107.98 7.896C107.196 7.896 106.572 8.144 106.108 8.64C105.644 9.136 105.412 9.832 105.412 10.728V18H101.308V0.24H105.412V6.408C105.828 5.816 106.396 5.344 107.116 4.992C107.836 4.64 108.644 4.464 109.54 4.464Z" fill="#00D9C0"/>
</svg>
